<mxfile host="Electron" modified="2023-09-03T20:37:19.213Z" agent="Mozilla/5.0 (Macintosh; Intel Mac OS X 10_15_7) AppleWebKit/537.36 (KHTML, like Gecko) draw.io/21.6.8 Chrome/114.0.5735.289 Electron/25.5.0 Safari/537.36" etag="yD-7Uyx_s65XBqvejJva" version="21.6.8" type="device" pages="3">
  <diagram name="hold main" id="ze03UmEreoSgNjndxy2k">
    <mxGraphModel dx="1450" dy="1890" grid="1" gridSize="10" guides="1" tooltips="1" connect="1" arrows="1" fold="1" page="1" pageScale="1" pageWidth="1100" pageHeight="850" math="0" shadow="0">
      <root>
        <mxCell id="0" />
        <mxCell id="1" parent="0" />
        <mxCell id="abiwMfAeNUQwlHbVoO3--28" style="edgeStyle=orthogonalEdgeStyle;shape=connector;rounded=1;orthogonalLoop=1;jettySize=auto;html=1;exitX=1;exitY=0.5;exitDx=0;exitDy=0;exitPerimeter=0;entryX=0;entryY=0.5;entryDx=0;entryDy=0;entryPerimeter=0;labelBackgroundColor=default;strokeColor=default;fontFamily=Helvetica;fontSize=11;fontColor=default;endArrow=classic;" edge="1" parent="1" source="MBmvFAVpu7HgSeQFoOSB-1" target="abiwMfAeNUQwlHbVoO3--9">
          <mxGeometry relative="1" as="geometry">
            <Array as="points">
              <mxPoint x="200" y="-470" />
              <mxPoint x="200" y="-220" />
            </Array>
          </mxGeometry>
        </mxCell>
        <mxCell id="MBmvFAVpu7HgSeQFoOSB-1" value="grammar" style="rhombus;whiteSpace=wrap;html=1;rounded=1;fontStyle=1;glass=0;sketch=0;fontSize=12;points=[[0,0.5,0,0,0],[0.5,0,0,0,0],[0.5,1,0,0,0],[1,0.5,0,0,0]];shadow=1;" vertex="1" parent="1">
          <mxGeometry x="40" y="-510" width="80" height="80" as="geometry" />
        </mxCell>
        <mxCell id="MBmvFAVpu7HgSeQFoOSB-2" value="transpiled" style="rhombus;whiteSpace=wrap;html=1;rounded=1;fillColor=#0050ef;fontColor=#ffffff;strokeColor=#001DBC;fontStyle=1;glass=0;sketch=0;fontSize=12;points=[[0,0.5,0,0,0],[0.5,0,0,0,0],[0.5,1,0,0,0],[1,0.5,0,0,0]];shadow=1;" vertex="1" parent="1">
          <mxGeometry x="1250" y="-240" width="80" height="80" as="geometry" />
        </mxCell>
        <mxCell id="abiwMfAeNUQwlHbVoO3--23" style="edgeStyle=orthogonalEdgeStyle;rounded=1;orthogonalLoop=1;jettySize=auto;html=1;exitX=1;exitY=0.5;exitDx=0;exitDy=0;exitPerimeter=0;entryX=0;entryY=0.5;entryDx=0;entryDy=0;entryPerimeter=0;" edge="1" parent="1" source="MBmvFAVpu7HgSeQFoOSB-3" target="abiwMfAeNUQwlHbVoO3--7">
          <mxGeometry relative="1" as="geometry" />
        </mxCell>
        <mxCell id="a4g83HvorKNQISnbfaRO-7" style="edgeStyle=orthogonalEdgeStyle;shape=connector;rounded=1;orthogonalLoop=1;jettySize=auto;html=1;exitX=1;exitY=0.5;exitDx=0;exitDy=0;exitPerimeter=0;entryX=0;entryY=0.5;entryDx=0;entryDy=0;entryPerimeter=0;labelBackgroundColor=default;strokeColor=default;fontFamily=Helvetica;fontSize=11;fontColor=default;endArrow=classic;" edge="1" parent="1" source="MBmvFAVpu7HgSeQFoOSB-3" target="a4g83HvorKNQISnbfaRO-3">
          <mxGeometry relative="1" as="geometry">
            <Array as="points">
              <mxPoint x="250" y="-350" />
              <mxPoint x="250" y="-440" />
            </Array>
          </mxGeometry>
        </mxCell>
        <mxCell id="a4g83HvorKNQISnbfaRO-8" style="edgeStyle=orthogonalEdgeStyle;shape=connector;rounded=1;orthogonalLoop=1;jettySize=auto;html=1;exitX=1;exitY=0.5;exitDx=0;exitDy=0;exitPerimeter=0;entryX=0;entryY=0.5;entryDx=0;entryDy=0;entryPerimeter=0;labelBackgroundColor=default;strokeColor=default;fontFamily=Helvetica;fontSize=11;fontColor=default;endArrow=classic;" edge="1" parent="1" source="MBmvFAVpu7HgSeQFoOSB-3" target="a4g83HvorKNQISnbfaRO-2">
          <mxGeometry relative="1" as="geometry">
            <Array as="points">
              <mxPoint x="250" y="-350" />
              <mxPoint x="250" y="-590" />
            </Array>
          </mxGeometry>
        </mxCell>
        <mxCell id="a4g83HvorKNQISnbfaRO-9" style="edgeStyle=orthogonalEdgeStyle;shape=connector;rounded=1;orthogonalLoop=1;jettySize=auto;html=1;exitX=1;exitY=0.5;exitDx=0;exitDy=0;exitPerimeter=0;entryX=0;entryY=0.5;entryDx=0;entryDy=0;entryPerimeter=0;labelBackgroundColor=default;strokeColor=default;fontFamily=Helvetica;fontSize=11;fontColor=default;endArrow=classic;" edge="1" parent="1" source="MBmvFAVpu7HgSeQFoOSB-3" target="a4g83HvorKNQISnbfaRO-1">
          <mxGeometry relative="1" as="geometry">
            <Array as="points">
              <mxPoint x="250" y="-350" />
              <mxPoint x="250" y="-750" />
            </Array>
          </mxGeometry>
        </mxCell>
        <mxCell id="MBmvFAVpu7HgSeQFoOSB-3" value="semantics" style="rhombus;whiteSpace=wrap;html=1;rounded=1;fontStyle=1;glass=0;sketch=0;fontSize=12;points=[[0,0.5,0,0,0],[0.5,0,0,0,0],[0.5,1,0,0,0],[1,0.5,0,0,0]];shadow=1;" vertex="1" parent="1">
          <mxGeometry x="40" y="-390" width="80" height="80" as="geometry" />
        </mxCell>
        <mxCell id="abiwMfAeNUQwlHbVoO3--29" style="edgeStyle=orthogonalEdgeStyle;shape=connector;rounded=1;orthogonalLoop=1;jettySize=auto;html=1;exitX=1;exitY=0.5;exitDx=0;exitDy=0;exitPerimeter=0;entryX=0;entryY=0.5;entryDx=0;entryDy=0;entryPerimeter=0;labelBackgroundColor=default;strokeColor=default;fontFamily=Helvetica;fontSize=11;fontColor=default;endArrow=classic;" edge="1" parent="1" source="MBmvFAVpu7HgSeQFoOSB-4" target="abiwMfAeNUQwlHbVoO3--12">
          <mxGeometry relative="1" as="geometry">
            <Array as="points">
              <mxPoint x="160" y="-230" />
              <mxPoint x="160" y="-152" />
            </Array>
          </mxGeometry>
        </mxCell>
        <mxCell id="MBmvFAVpu7HgSeQFoOSB-4" value="support" style="rhombus;whiteSpace=wrap;html=1;rounded=1;fontStyle=1;glass=0;sketch=0;fontSize=12;points=[[0,0.5,0,0,0],[0.5,0,0,0,0],[0.5,1,0,0,0],[1,0.5,0,0,0]];shadow=1;" vertex="1" parent="1">
          <mxGeometry x="40" y="-270" width="80" height="80" as="geometry" />
        </mxCell>
        <mxCell id="abiwMfAeNUQwlHbVoO3--30" style="edgeStyle=orthogonalEdgeStyle;shape=connector;rounded=1;orthogonalLoop=1;jettySize=auto;html=1;exitX=1;exitY=0.5;exitDx=0;exitDy=0;exitPerimeter=0;entryX=0;entryY=0.5;entryDx=0;entryDy=0;entryPerimeter=0;labelBackgroundColor=default;strokeColor=default;fontFamily=Helvetica;fontSize=11;fontColor=default;endArrow=classic;" edge="1" parent="1" source="MBmvFAVpu7HgSeQFoOSB-5" target="abiwMfAeNUQwlHbVoO3--13">
          <mxGeometry relative="1" as="geometry" />
        </mxCell>
        <mxCell id="MBmvFAVpu7HgSeQFoOSB-5" value="src" style="rhombus;whiteSpace=wrap;html=1;rounded=1;fontStyle=1;glass=0;sketch=0;fontSize=12;points=[[0,0.5,0,0,0],[0.5,0,0,0,0],[0.5,1,0,0,0],[1,0.5,0,0,0]];shadow=1;" vertex="1" parent="1">
          <mxGeometry x="40" y="-150" width="80" height="80" as="geometry" />
        </mxCell>
        <mxCell id="MBmvFAVpu7HgSeQFoOSB-6" value="error" style="rhombus;whiteSpace=wrap;html=1;rounded=1;fillColor=#0050ef;fontColor=#ffffff;strokeColor=#001DBC;fontStyle=1;glass=0;sketch=0;fontSize=12;points=[[0,0.5,0,0,0],[0.5,0,0,0,0],[0.5,1,0,0,0],[1,0.5,0,0,0]];shadow=1;" vertex="1" parent="1">
          <mxGeometry x="1250" y="-110" width="80" height="80" as="geometry" />
        </mxCell>
        <mxCell id="abiwMfAeNUQwlHbVoO3--1" value="Ohm" style="rounded=1;whiteSpace=wrap;html=1;sketch=0;container=1;recursiveResize=0;verticalAlign=top;arcSize=6;fontStyle=1;autosize=0;points=[];absoluteArcSize=1;shadow=1;strokeColor=#001DBC;fillColor=#0050ef;fontColor=#ffffff;" vertex="1" parent="1">
          <mxGeometry x="670" y="-490" width="136" height="170" as="geometry">
            <mxRectangle x="-98" y="-1230" width="99" height="26" as="alternateBounds" />
          </mxGeometry>
        </mxCell>
        <mxCell id="abiwMfAeNUQwlHbVoO3--2" value="grammar" style="rounded=1;whiteSpace=wrap;html=1;sketch=0;points=[[0,0.5,0,0,0],[1,0.5,0,0,0]];arcSize=50;" vertex="1" parent="abiwMfAeNUQwlHbVoO3--1">
          <mxGeometry x="-16.75" y="27.5" width="66" height="25" as="geometry" />
        </mxCell>
        <mxCell id="abiwMfAeNUQwlHbVoO3--3" value="processed" style="rounded=1;whiteSpace=wrap;html=1;sketch=0;points=[[0,0.5,0,0,0],[1,0.5,0,0,0]];fillColor=#1ba1e2;fontColor=#ffffff;strokeColor=#006EAF;arcSize=50;" vertex="1" parent="abiwMfAeNUQwlHbVoO3--1">
          <mxGeometry x="84.75" y="50" width="66" height="25" as="geometry" />
        </mxCell>
        <mxCell id="abiwMfAeNUQwlHbVoO3--5" value="semantic" style="rounded=1;whiteSpace=wrap;html=1;sketch=0;points=[[0,0.5,0,0,0],[1,0.5,0,0,0]];arcSize=50;" vertex="1" parent="abiwMfAeNUQwlHbVoO3--1">
          <mxGeometry x="-16.75" y="60" width="66" height="25" as="geometry" />
        </mxCell>
        <mxCell id="abiwMfAeNUQwlHbVoO3--6" value="support" style="rounded=1;whiteSpace=wrap;html=1;sketch=0;points=[[0,0.5,0,0,0],[1,0.5,0,0,0]];arcSize=50;" vertex="1" parent="abiwMfAeNUQwlHbVoO3--1">
          <mxGeometry x="-16.75" y="95" width="66" height="25" as="geometry" />
        </mxCell>
        <mxCell id="abiwMfAeNUQwlHbVoO3--7" value="src" style="rounded=1;whiteSpace=wrap;html=1;sketch=0;points=[[0,0.5,0,0,0],[1,0.5,0,0,0]];arcSize=50;" vertex="1" parent="abiwMfAeNUQwlHbVoO3--1">
          <mxGeometry x="-16.75" y="130" width="66" height="25" as="geometry" />
        </mxCell>
        <mxCell id="abiwMfAeNUQwlHbVoO3--4" value="error" style="rounded=1;whiteSpace=wrap;html=1;sketch=0;points=[[0,0.5,0,0,0],[1,0.5,0,0,0]];fillColor=#1ba1e2;fontColor=#ffffff;strokeColor=#006EAF;arcSize=50;" vertex="1" parent="abiwMfAeNUQwlHbVoO3--1">
          <mxGeometry x="84.75" y="110" width="66" height="25" as="geometry" />
        </mxCell>
        <mxCell id="abiwMfAeNUQwlHbVoO3--8" value="Ohm" style="rounded=1;whiteSpace=wrap;html=1;sketch=0;container=1;recursiveResize=0;verticalAlign=top;arcSize=6;fontStyle=1;autosize=0;points=[];absoluteArcSize=1;shadow=1;strokeColor=#001DBC;fillColor=#0050ef;fontColor=#ffffff;" vertex="1" parent="1">
          <mxGeometry x="980" y="-260" width="133.25" height="170" as="geometry">
            <mxRectangle x="-98" y="-1230" width="99" height="26" as="alternateBounds" />
          </mxGeometry>
        </mxCell>
        <mxCell id="abiwMfAeNUQwlHbVoO3--9" value="grammar" style="rounded=1;whiteSpace=wrap;html=1;sketch=0;points=[[0,0.5,0,0,0],[1,0.5,0,0,0]];arcSize=50;" vertex="1" parent="abiwMfAeNUQwlHbVoO3--8">
          <mxGeometry x="-16.75" y="27.5" width="66" height="25" as="geometry" />
        </mxCell>
        <mxCell id="abiwMfAeNUQwlHbVoO3--10" value="processed" style="rounded=1;whiteSpace=wrap;html=1;sketch=0;points=[[0,0.5,0,0,0],[1,0.5,0,0,0]];fillColor=#1ba1e2;fontColor=#ffffff;strokeColor=#006EAF;arcSize=50;" vertex="1" parent="abiwMfAeNUQwlHbVoO3--8">
          <mxGeometry x="84.75" y="50" width="66" height="25" as="geometry" />
        </mxCell>
        <mxCell id="abiwMfAeNUQwlHbVoO3--11" value="semantic" style="rounded=1;whiteSpace=wrap;html=1;sketch=0;points=[[0,0.5,0,0,0],[1,0.5,0,0,0]];arcSize=50;" vertex="1" parent="abiwMfAeNUQwlHbVoO3--8">
          <mxGeometry x="-16.75" y="60" width="66" height="25" as="geometry" />
        </mxCell>
        <mxCell id="abiwMfAeNUQwlHbVoO3--12" value="support" style="rounded=1;whiteSpace=wrap;html=1;sketch=0;points=[[0,0.5,0,0,0],[1,0.5,0,0,0]];arcSize=50;" vertex="1" parent="abiwMfAeNUQwlHbVoO3--8">
          <mxGeometry x="-16.75" y="95" width="66" height="25" as="geometry" />
        </mxCell>
        <mxCell id="abiwMfAeNUQwlHbVoO3--13" value="src" style="rounded=1;whiteSpace=wrap;html=1;sketch=0;points=[[0,0.5,0,0,0],[1,0.5,0,0,0]];arcSize=50;" vertex="1" parent="abiwMfAeNUQwlHbVoO3--8">
          <mxGeometry x="-16.75" y="130" width="66" height="25" as="geometry" />
        </mxCell>
        <mxCell id="abiwMfAeNUQwlHbVoO3--14" value="error" style="rounded=1;whiteSpace=wrap;html=1;sketch=0;points=[[0,0.5,0,0,0],[1,0.5,0,0,0]];fillColor=#1ba1e2;fontColor=#ffffff;strokeColor=#006EAF;arcSize=50;" vertex="1" parent="abiwMfAeNUQwlHbVoO3--8">
          <mxGeometry x="83.25" y="110" width="66" height="25" as="geometry" />
        </mxCell>
        <mxCell id="abiwMfAeNUQwlHbVoO3--15" value="HardCodedGrammar" style="rounded=1;whiteSpace=wrap;html=1;sketch=0;container=1;recursiveResize=0;verticalAlign=top;arcSize=6;fontStyle=1;autosize=0;points=[];absoluteArcSize=1;shadow=1;strokeColor=#6c8ebf;fillColor=#dae8fc;" vertex="1" parent="1">
          <mxGeometry x="350" y="-800" width="170" height="100" as="geometry">
            <mxRectangle x="-98" y="-1230" width="99" height="26" as="alternateBounds" />
          </mxGeometry>
        </mxCell>
        <mxCell id="abiwMfAeNUQwlHbVoO3--17" value="output" style="rounded=1;whiteSpace=wrap;html=1;sketch=0;points=[[0,0.5,0,0,0],[1,0.5,0,0,0]];fillColor=#1ba1e2;fontColor=#ffffff;strokeColor=#006EAF;arcSize=50;" vertex="1" parent="abiwMfAeNUQwlHbVoO3--15">
          <mxGeometry x="120" y="40" width="66" height="25" as="geometry" />
        </mxCell>
        <mxCell id="a4g83HvorKNQISnbfaRO-1" value="start" style="rounded=1;whiteSpace=wrap;html=1;sketch=0;points=[[0,0.5,0,0,0],[1,0.5,0,0,0]];arcSize=50;" vertex="1" parent="abiwMfAeNUQwlHbVoO3--15">
          <mxGeometry x="-20" y="37.5" width="40" height="25" as="geometry" />
        </mxCell>
        <mxCell id="abiwMfAeNUQwlHbVoO3--19" value="HardCodedSemantics" style="rounded=1;whiteSpace=wrap;html=1;sketch=0;container=1;recursiveResize=0;verticalAlign=top;arcSize=6;fontStyle=1;autosize=0;points=[];absoluteArcSize=1;shadow=1;strokeColor=#6c8ebf;fillColor=#dae8fc;" vertex="1" parent="1">
          <mxGeometry x="350" y="-640" width="170" height="100" as="geometry">
            <mxRectangle x="-98" y="-1230" width="99" height="26" as="alternateBounds" />
          </mxGeometry>
        </mxCell>
        <mxCell id="abiwMfAeNUQwlHbVoO3--20" value="output" style="rounded=1;whiteSpace=wrap;html=1;sketch=0;points=[[0,0.5,0,0,0],[1,0.5,0,0,0]];fillColor=#1ba1e2;fontColor=#ffffff;strokeColor=#006EAF;arcSize=50;" vertex="1" parent="abiwMfAeNUQwlHbVoO3--19">
          <mxGeometry x="120" y="40" width="66" height="25" as="geometry" />
        </mxCell>
        <mxCell id="abiwMfAeNUQwlHbVoO3--21" value="HardCodedSupport" style="rounded=1;whiteSpace=wrap;html=1;sketch=0;container=1;recursiveResize=0;verticalAlign=top;arcSize=6;fontStyle=1;autosize=0;points=[];absoluteArcSize=1;shadow=1;strokeColor=#6c8ebf;fillColor=#dae8fc;" vertex="1" parent="1">
          <mxGeometry x="350" y="-490" width="170" height="100" as="geometry">
            <mxRectangle x="-98" y="-1230" width="99" height="26" as="alternateBounds" />
          </mxGeometry>
        </mxCell>
        <mxCell id="abiwMfAeNUQwlHbVoO3--22" value="output" style="rounded=1;whiteSpace=wrap;html=1;sketch=0;points=[[0,0.5,0,0,0],[1,0.5,0,0,0]];fillColor=#1ba1e2;fontColor=#ffffff;strokeColor=#006EAF;arcSize=50;" vertex="1" parent="abiwMfAeNUQwlHbVoO3--21">
          <mxGeometry x="120" y="40" width="66" height="25" as="geometry" />
        </mxCell>
        <mxCell id="abiwMfAeNUQwlHbVoO3--24" style="edgeStyle=orthogonalEdgeStyle;rounded=1;orthogonalLoop=1;jettySize=auto;html=1;exitX=1;exitY=0.5;exitDx=0;exitDy=0;exitPerimeter=0;entryX=0;entryY=0.5;entryDx=0;entryDy=0;entryPerimeter=0;" edge="1" parent="1" source="abiwMfAeNUQwlHbVoO3--22" target="abiwMfAeNUQwlHbVoO3--6">
          <mxGeometry relative="1" as="geometry">
            <Array as="points">
              <mxPoint x="580" y="-437" />
              <mxPoint x="580" y="-382" />
            </Array>
          </mxGeometry>
        </mxCell>
        <mxCell id="abiwMfAeNUQwlHbVoO3--25" style="edgeStyle=orthogonalEdgeStyle;shape=connector;rounded=1;orthogonalLoop=1;jettySize=auto;html=1;exitX=1;exitY=0.5;exitDx=0;exitDy=0;exitPerimeter=0;entryX=0;entryY=0.5;entryDx=0;entryDy=0;entryPerimeter=0;labelBackgroundColor=default;strokeColor=default;fontFamily=Helvetica;fontSize=11;fontColor=default;endArrow=classic;" edge="1" parent="1" source="abiwMfAeNUQwlHbVoO3--20" target="abiwMfAeNUQwlHbVoO3--5">
          <mxGeometry relative="1" as="geometry">
            <Array as="points">
              <mxPoint x="590" y="-587" />
              <mxPoint x="590" y="-417" />
            </Array>
          </mxGeometry>
        </mxCell>
        <mxCell id="abiwMfAeNUQwlHbVoO3--26" style="edgeStyle=orthogonalEdgeStyle;shape=connector;rounded=1;orthogonalLoop=1;jettySize=auto;html=1;exitX=1;exitY=0.5;exitDx=0;exitDy=0;exitPerimeter=0;entryX=0;entryY=0.5;entryDx=0;entryDy=0;entryPerimeter=0;labelBackgroundColor=default;strokeColor=default;fontFamily=Helvetica;fontSize=11;fontColor=default;endArrow=classic;" edge="1" parent="1" source="abiwMfAeNUQwlHbVoO3--17" target="abiwMfAeNUQwlHbVoO3--2">
          <mxGeometry relative="1" as="geometry">
            <Array as="points">
              <mxPoint x="600" y="-747" />
              <mxPoint x="600" y="-450" />
            </Array>
          </mxGeometry>
        </mxCell>
        <mxCell id="abiwMfAeNUQwlHbVoO3--27" style="edgeStyle=orthogonalEdgeStyle;shape=connector;rounded=1;orthogonalLoop=1;jettySize=auto;html=1;exitX=1;exitY=0.5;exitDx=0;exitDy=0;exitPerimeter=0;entryX=0;entryY=0.5;entryDx=0;entryDy=0;entryPerimeter=0;labelBackgroundColor=default;strokeColor=default;fontFamily=Helvetica;fontSize=11;fontColor=default;endArrow=classic;" edge="1" parent="1" source="abiwMfAeNUQwlHbVoO3--3" target="abiwMfAeNUQwlHbVoO3--11">
          <mxGeometry relative="1" as="geometry" />
        </mxCell>
        <mxCell id="abiwMfAeNUQwlHbVoO3--31" style="edgeStyle=orthogonalEdgeStyle;shape=connector;rounded=1;orthogonalLoop=1;jettySize=auto;html=1;exitX=1;exitY=0.5;exitDx=0;exitDy=0;exitPerimeter=0;entryX=0;entryY=0.5;entryDx=0;entryDy=0;entryPerimeter=0;labelBackgroundColor=default;strokeColor=default;fontFamily=Helvetica;fontSize=11;fontColor=default;endArrow=classic;" edge="1" parent="1" source="abiwMfAeNUQwlHbVoO3--10" target="MBmvFAVpu7HgSeQFoOSB-2">
          <mxGeometry relative="1" as="geometry" />
        </mxCell>
        <mxCell id="abiwMfAeNUQwlHbVoO3--32" style="edgeStyle=orthogonalEdgeStyle;shape=connector;rounded=1;orthogonalLoop=1;jettySize=auto;html=1;exitX=1;exitY=0.5;exitDx=0;exitDy=0;exitPerimeter=0;entryX=0;entryY=0.5;entryDx=0;entryDy=0;entryPerimeter=0;labelBackgroundColor=default;strokeColor=default;fontFamily=Helvetica;fontSize=11;fontColor=default;endArrow=classic;" edge="1" parent="1" source="abiwMfAeNUQwlHbVoO3--14" target="MBmvFAVpu7HgSeQFoOSB-6">
          <mxGeometry relative="1" as="geometry">
            <Array as="points">
              <mxPoint x="1160" y="-137" />
              <mxPoint x="1160" y="-70" />
            </Array>
          </mxGeometry>
        </mxCell>
        <mxCell id="abiwMfAeNUQwlHbVoO3--33" style="edgeStyle=orthogonalEdgeStyle;shape=connector;rounded=1;orthogonalLoop=1;jettySize=auto;html=1;exitX=1;exitY=0.5;exitDx=0;exitDy=0;exitPerimeter=0;labelBackgroundColor=default;strokeColor=default;fontFamily=Helvetica;fontSize=11;fontColor=default;endArrow=classic;entryX=0;entryY=0.5;entryDx=0;entryDy=0;entryPerimeter=0;jumpStyle=arc;" edge="1" parent="1" source="abiwMfAeNUQwlHbVoO3--4" target="MBmvFAVpu7HgSeQFoOSB-6">
          <mxGeometry relative="1" as="geometry">
            <Array as="points">
              <mxPoint x="1160" y="-367" />
              <mxPoint x="1160" y="-70" />
            </Array>
          </mxGeometry>
        </mxCell>
        <mxCell id="a4g83HvorKNQISnbfaRO-2" value="start" style="rounded=1;whiteSpace=wrap;html=1;sketch=0;points=[[0,0.5,0,0,0],[1,0.5,0,0,0]];arcSize=50;" vertex="1" parent="1">
          <mxGeometry x="330" y="-602.5" width="40" height="25" as="geometry" />
        </mxCell>
        <mxCell id="a4g83HvorKNQISnbfaRO-3" value="start" style="rounded=1;whiteSpace=wrap;html=1;sketch=0;points=[[0,0.5,0,0,0],[1,0.5,0,0,0]];arcSize=50;" vertex="1" parent="1">
          <mxGeometry x="330" y="-452.5" width="40" height="25" as="geometry" />
        </mxCell>
      </root>
    </mxGraphModel>
  </diagram>
  <diagram id="uW6rjMXwPpzSlstDdhK8" name="Ohm">
    <mxGraphModel dx="1015" dy="1578" grid="1" gridSize="10" guides="1" tooltips="1" connect="1" arrows="1" fold="1" page="1" pageScale="1" pageWidth="1100" pageHeight="850" math="0" shadow="0">
      <root>
        <mxCell id="0" />
        <mxCell id="1" parent="0" />
        <mxCell id="1SUmNRv2CSb627Tl9QGn-1" value="concat" style="rounded=1;whiteSpace=wrap;html=1;sketch=0;container=1;recursiveResize=0;verticalAlign=top;arcSize=6;fontStyle=1;autosize=0;points=[];absoluteArcSize=1;shadow=1;strokeColor=#001DBC;fillColor=#0050ef;fontColor=#ffffff;" vertex="1" parent="1">
          <mxGeometry x="1220" y="-400" width="136" height="110" as="geometry">
            <mxRectangle x="-98" y="-1230" width="99" height="26" as="alternateBounds" />
          </mxGeometry>
        </mxCell>
        <mxCell id="1SUmNRv2CSb627Tl9QGn-2" value="str" style="rounded=1;whiteSpace=wrap;html=1;sketch=0;points=[[0,0.5,0,0,0],[1,0.5,0,0,0]];arcSize=50;" vertex="1" parent="1SUmNRv2CSb627Tl9QGn-1">
          <mxGeometry x="-16.75" y="27.5" width="66" height="25" as="geometry" />
        </mxCell>
        <mxCell id="1SUmNRv2CSb627Tl9QGn-3" value="str" style="rounded=1;whiteSpace=wrap;html=1;sketch=0;points=[[0,0.5,0,0,0],[1,0.5,0,0,0]];fillColor=#1ba1e2;fontColor=#ffffff;strokeColor=#006EAF;arcSize=50;" vertex="1" parent="1SUmNRv2CSb627Tl9QGn-1">
          <mxGeometry x="80" y="42.5" width="66" height="25" as="geometry" />
        </mxCell>
        <mxCell id="gnDXf7aOe6YKthlQODZb-35" value="flush" style="rounded=1;whiteSpace=wrap;html=1;sketch=0;points=[[0,0.5,0,0,0],[1,0.5,0,0,0]];arcSize=50;" vertex="1" parent="1SUmNRv2CSb627Tl9QGn-1">
          <mxGeometry x="-16.75" y="67.5" width="66" height="25" as="geometry" />
        </mxCell>
        <mxCell id="gnDXf7aOe6YKthlQODZb-8" style="edgeStyle=orthogonalEdgeStyle;shape=connector;rounded=1;orthogonalLoop=1;jettySize=auto;html=1;exitX=1;exitY=0.5;exitDx=0;exitDy=0;exitPerimeter=0;entryX=0;entryY=0.5;entryDx=0;entryDy=0;entryPerimeter=0;labelBackgroundColor=default;strokeColor=default;fontFamily=Helvetica;fontSize=11;fontColor=default;endArrow=classic;" edge="1" parent="1" source="t-Cp5gfqn5IYE-USq2OY-1" target="gnDXf7aOe6YKthlQODZb-4">
          <mxGeometry relative="1" as="geometry" />
        </mxCell>
        <mxCell id="t-Cp5gfqn5IYE-USq2OY-1" value="grammar" style="rhombus;whiteSpace=wrap;html=1;rounded=1;fontStyle=1;glass=0;sketch=0;fontSize=12;points=[[0,0.5,0,0,0],[0.5,0,0,0,0],[0.5,1,0,0,0],[1,0.5,0,0,0]];shadow=1;" vertex="1" parent="1">
          <mxGeometry x="40" y="-510" width="80" height="80" as="geometry" />
        </mxCell>
        <mxCell id="gnDXf7aOe6YKthlQODZb-9" style="edgeStyle=orthogonalEdgeStyle;shape=connector;rounded=1;orthogonalLoop=1;jettySize=auto;html=1;exitX=1;exitY=0.5;exitDx=0;exitDy=0;exitPerimeter=0;entryX=0;entryY=0.5;entryDx=0;entryDy=0;entryPerimeter=0;labelBackgroundColor=default;strokeColor=default;fontFamily=Helvetica;fontSize=11;fontColor=default;endArrow=classic;" edge="1" parent="1" source="t-Cp5gfqn5IYE-USq2OY-2" target="gnDXf7aOe6YKthlQODZb-5">
          <mxGeometry relative="1" as="geometry" />
        </mxCell>
        <mxCell id="t-Cp5gfqn5IYE-USq2OY-2" value="semantics" style="rhombus;whiteSpace=wrap;html=1;rounded=1;fontStyle=1;glass=0;sketch=0;fontSize=12;points=[[0,0.5,0,0,0],[0.5,0,0,0,0],[0.5,1,0,0,0],[1,0.5,0,0,0]];shadow=1;" vertex="1" parent="1">
          <mxGeometry x="40" y="-390" width="80" height="80" as="geometry" />
        </mxCell>
        <mxCell id="gnDXf7aOe6YKthlQODZb-16" style="edgeStyle=orthogonalEdgeStyle;shape=connector;rounded=1;orthogonalLoop=1;jettySize=auto;html=1;exitX=1;exitY=0.5;exitDx=0;exitDy=0;exitPerimeter=0;entryX=0;entryY=0.5;entryDx=0;entryDy=0;entryPerimeter=0;labelBackgroundColor=default;strokeColor=default;fontFamily=Helvetica;fontSize=11;fontColor=default;endArrow=classic;" edge="1" parent="1" source="t-Cp5gfqn5IYE-USq2OY-3" target="gnDXf7aOe6YKthlQODZb-12">
          <mxGeometry relative="1" as="geometry" />
        </mxCell>
        <mxCell id="t-Cp5gfqn5IYE-USq2OY-3" value="support" style="rhombus;whiteSpace=wrap;html=1;rounded=1;fontStyle=1;glass=0;sketch=0;fontSize=12;points=[[0,0.5,0,0,0],[0.5,0,0,0,0],[0.5,1,0,0,0],[1,0.5,0,0,0]];shadow=1;" vertex="1" parent="1">
          <mxGeometry x="40" y="-270" width="80" height="80" as="geometry" />
        </mxCell>
        <mxCell id="gnDXf7aOe6YKthlQODZb-23" style="edgeStyle=orthogonalEdgeStyle;shape=connector;rounded=1;orthogonalLoop=1;jettySize=auto;html=1;exitX=1;exitY=0.5;exitDx=0;exitDy=0;exitPerimeter=0;entryX=0;entryY=0.5;entryDx=0;entryDy=0;entryPerimeter=0;labelBackgroundColor=default;strokeColor=default;fontFamily=Helvetica;fontSize=11;fontColor=default;endArrow=classic;" edge="1" parent="1" source="t-Cp5gfqn5IYE-USq2OY-4" target="gnDXf7aOe6YKthlQODZb-19">
          <mxGeometry relative="1" as="geometry" />
        </mxCell>
        <mxCell id="t-Cp5gfqn5IYE-USq2OY-4" value="src" style="rhombus;whiteSpace=wrap;html=1;rounded=1;fontStyle=1;glass=0;sketch=0;fontSize=12;points=[[0,0.5,0,0,0],[0.5,0,0,0,0],[0.5,1,0,0,0],[1,0.5,0,0,0]];shadow=1;" vertex="1" parent="1">
          <mxGeometry x="40" y="-150" width="80" height="80" as="geometry" />
        </mxCell>
        <mxCell id="gnDXf7aOe6YKthlQODZb-1" value="transpiled" style="rhombus;whiteSpace=wrap;html=1;rounded=1;fillColor=#0050ef;fontColor=#ffffff;strokeColor=#001DBC;fontStyle=1;glass=0;sketch=0;fontSize=12;points=[[0,0.5,0,0,0],[0.5,0,0,0,0],[0.5,1,0,0,0],[1,0.5,0,0,0]];shadow=1;" vertex="1" parent="1">
          <mxGeometry x="1660" y="-400" width="80" height="80" as="geometry" />
        </mxCell>
        <mxCell id="gnDXf7aOe6YKthlQODZb-2" value="error" style="rhombus;whiteSpace=wrap;html=1;rounded=1;fillColor=#0050ef;fontColor=#ffffff;strokeColor=#001DBC;fontStyle=1;glass=0;sketch=0;fontSize=12;points=[[0,0.5,0,0,0],[0.5,0,0,0,0],[0.5,1,0,0,0],[1,0.5,0,0,0]];shadow=1;" vertex="1" parent="1">
          <mxGeometry x="1660" y="-270" width="80" height="80" as="geometry" />
        </mxCell>
        <mxCell id="gnDXf7aOe6YKthlQODZb-3" value="1then2" style="rounded=1;whiteSpace=wrap;html=1;sketch=0;container=1;recursiveResize=0;verticalAlign=top;arcSize=6;fontStyle=1;autosize=0;points=[];absoluteArcSize=1;shadow=1;strokeColor=#001DBC;fillColor=#0050ef;fontColor=#ffffff;fontFamily=Helvetica;fontSize=11;" vertex="1" parent="1">
          <mxGeometry x="240" y="-470" width="140" height="120" as="geometry">
            <mxRectangle x="-98" y="-1230" width="99" height="26" as="alternateBounds" />
          </mxGeometry>
        </mxCell>
        <mxCell id="gnDXf7aOe6YKthlQODZb-4" value="1" style="rounded=1;whiteSpace=wrap;html=1;sketch=0;points=[[0,0.5,0,0,0],[1,0.5,0,0,0]];arcSize=50;fontFamily=Helvetica;fontSize=11;fontColor=default;" vertex="1" parent="gnDXf7aOe6YKthlQODZb-3">
          <mxGeometry x="-17" y="30" width="66" height="25" as="geometry" />
        </mxCell>
        <mxCell id="gnDXf7aOe6YKthlQODZb-5" value="2" style="rounded=1;whiteSpace=wrap;html=1;sketch=0;points=[[0,0.5,0,0,0],[1,0.5,0,0,0]];arcSize=50;fontFamily=Helvetica;fontSize=11;fontColor=default;" vertex="1" parent="gnDXf7aOe6YKthlQODZb-3">
          <mxGeometry x="-17" y="70" width="66" height="25" as="geometry" />
        </mxCell>
        <mxCell id="gnDXf7aOe6YKthlQODZb-6" value="2" style="rounded=1;whiteSpace=wrap;html=1;sketch=0;points=[[0,0.5,0,0,0],[1,0.5,0,0,0]];fillColor=#1ba1e2;fontColor=#ffffff;strokeColor=#006EAF;arcSize=50;fontFamily=Helvetica;fontSize=11;" vertex="1" parent="gnDXf7aOe6YKthlQODZb-3">
          <mxGeometry x="94.75" y="70" width="66" height="25" as="geometry" />
        </mxCell>
        <mxCell id="gnDXf7aOe6YKthlQODZb-7" value="1" style="rounded=1;whiteSpace=wrap;html=1;sketch=0;points=[[0,0.5,0,0,0],[1,0.5,0,0,0]];fillColor=#1ba1e2;fontColor=#ffffff;strokeColor=#006EAF;arcSize=50;fontFamily=Helvetica;fontSize=11;" vertex="1" parent="gnDXf7aOe6YKthlQODZb-3">
          <mxGeometry x="94.75" y="30" width="66" height="25" as="geometry" />
        </mxCell>
        <mxCell id="gnDXf7aOe6YKthlQODZb-10" value="1then2" style="rounded=1;whiteSpace=wrap;html=1;sketch=0;container=1;recursiveResize=0;verticalAlign=top;arcSize=6;fontStyle=1;autosize=0;points=[];absoluteArcSize=1;shadow=1;strokeColor=#001DBC;fillColor=#0050ef;fontColor=#ffffff;fontFamily=Helvetica;fontSize=11;" vertex="1" parent="1">
          <mxGeometry x="480" y="-360" width="140" height="120" as="geometry">
            <mxRectangle x="-98" y="-1230" width="99" height="26" as="alternateBounds" />
          </mxGeometry>
        </mxCell>
        <mxCell id="gnDXf7aOe6YKthlQODZb-11" value="1" style="rounded=1;whiteSpace=wrap;html=1;sketch=0;points=[[0,0.5,0,0,0],[1,0.5,0,0,0]];arcSize=50;fontFamily=Helvetica;fontSize=11;fontColor=default;" vertex="1" parent="gnDXf7aOe6YKthlQODZb-10">
          <mxGeometry x="-17" y="30" width="66" height="25" as="geometry" />
        </mxCell>
        <mxCell id="gnDXf7aOe6YKthlQODZb-12" value="2" style="rounded=1;whiteSpace=wrap;html=1;sketch=0;points=[[0,0.5,0,0,0],[1,0.5,0,0,0]];arcSize=50;fontFamily=Helvetica;fontSize=11;fontColor=default;" vertex="1" parent="gnDXf7aOe6YKthlQODZb-10">
          <mxGeometry x="-17" y="70" width="66" height="25" as="geometry" />
        </mxCell>
        <mxCell id="gnDXf7aOe6YKthlQODZb-13" value="2" style="rounded=1;whiteSpace=wrap;html=1;sketch=0;points=[[0,0.5,0,0,0],[1,0.5,0,0,0]];fillColor=#1ba1e2;fontColor=#ffffff;strokeColor=#006EAF;arcSize=50;fontFamily=Helvetica;fontSize=11;" vertex="1" parent="gnDXf7aOe6YKthlQODZb-10">
          <mxGeometry x="94.75" y="70" width="66" height="25" as="geometry" />
        </mxCell>
        <mxCell id="gnDXf7aOe6YKthlQODZb-14" value="1" style="rounded=1;whiteSpace=wrap;html=1;sketch=0;points=[[0,0.5,0,0,0],[1,0.5,0,0,0]];fillColor=#1ba1e2;fontColor=#ffffff;strokeColor=#006EAF;arcSize=50;fontFamily=Helvetica;fontSize=11;" vertex="1" parent="gnDXf7aOe6YKthlQODZb-10">
          <mxGeometry x="94.75" y="30" width="66" height="25" as="geometry" />
        </mxCell>
        <mxCell id="gnDXf7aOe6YKthlQODZb-15" style="edgeStyle=orthogonalEdgeStyle;shape=connector;rounded=1;orthogonalLoop=1;jettySize=auto;html=1;exitX=1;exitY=0.5;exitDx=0;exitDy=0;exitPerimeter=0;entryX=0;entryY=0.5;entryDx=0;entryDy=0;entryPerimeter=0;labelBackgroundColor=default;strokeColor=default;fontFamily=Helvetica;fontSize=11;fontColor=default;endArrow=classic;" edge="1" parent="1" source="gnDXf7aOe6YKthlQODZb-6" target="gnDXf7aOe6YKthlQODZb-11">
          <mxGeometry relative="1" as="geometry" />
        </mxCell>
        <mxCell id="gnDXf7aOe6YKthlQODZb-17" value="1then2" style="rounded=1;whiteSpace=wrap;html=1;sketch=0;container=1;recursiveResize=0;verticalAlign=top;arcSize=6;fontStyle=1;autosize=0;points=[];absoluteArcSize=1;shadow=1;strokeColor=#001DBC;fillColor=#0050ef;fontColor=#ffffff;fontFamily=Helvetica;fontSize=11;" vertex="1" parent="1">
          <mxGeometry x="720" y="-240" width="140" height="120" as="geometry">
            <mxRectangle x="-98" y="-1230" width="99" height="26" as="alternateBounds" />
          </mxGeometry>
        </mxCell>
        <mxCell id="gnDXf7aOe6YKthlQODZb-18" value="1" style="rounded=1;whiteSpace=wrap;html=1;sketch=0;points=[[0,0.5,0,0,0],[1,0.5,0,0,0]];arcSize=50;fontFamily=Helvetica;fontSize=11;fontColor=default;" vertex="1" parent="gnDXf7aOe6YKthlQODZb-17">
          <mxGeometry x="-17" y="30" width="66" height="25" as="geometry" />
        </mxCell>
        <mxCell id="gnDXf7aOe6YKthlQODZb-19" value="2" style="rounded=1;whiteSpace=wrap;html=1;sketch=0;points=[[0,0.5,0,0,0],[1,0.5,0,0,0]];arcSize=50;fontFamily=Helvetica;fontSize=11;fontColor=default;" vertex="1" parent="gnDXf7aOe6YKthlQODZb-17">
          <mxGeometry x="-17" y="70" width="66" height="25" as="geometry" />
        </mxCell>
        <mxCell id="gnDXf7aOe6YKthlQODZb-20" value="2" style="rounded=1;whiteSpace=wrap;html=1;sketch=0;points=[[0,0.5,0,0,0],[1,0.5,0,0,0]];fillColor=#1ba1e2;fontColor=#ffffff;strokeColor=#006EAF;arcSize=50;fontFamily=Helvetica;fontSize=11;" vertex="1" parent="gnDXf7aOe6YKthlQODZb-17">
          <mxGeometry x="94.75" y="70" width="66" height="25" as="geometry" />
        </mxCell>
        <mxCell id="gnDXf7aOe6YKthlQODZb-21" value="1" style="rounded=1;whiteSpace=wrap;html=1;sketch=0;points=[[0,0.5,0,0,0],[1,0.5,0,0,0]];fillColor=#1ba1e2;fontColor=#ffffff;strokeColor=#006EAF;arcSize=50;fontFamily=Helvetica;fontSize=11;" vertex="1" parent="gnDXf7aOe6YKthlQODZb-17">
          <mxGeometry x="94.75" y="30" width="66" height="25" as="geometry" />
        </mxCell>
        <mxCell id="gnDXf7aOe6YKthlQODZb-22" style="edgeStyle=orthogonalEdgeStyle;shape=connector;rounded=1;orthogonalLoop=1;jettySize=auto;html=1;exitX=1;exitY=0.5;exitDx=0;exitDy=0;exitPerimeter=0;entryX=0;entryY=0.5;entryDx=0;entryDy=0;entryPerimeter=0;labelBackgroundColor=default;strokeColor=default;fontFamily=Helvetica;fontSize=11;fontColor=default;endArrow=classic;" edge="1" parent="1" source="gnDXf7aOe6YKthlQODZb-13" target="gnDXf7aOe6YKthlQODZb-18">
          <mxGeometry relative="1" as="geometry" />
        </mxCell>
        <mxCell id="gnDXf7aOe6YKthlQODZb-24" style="edgeStyle=orthogonalEdgeStyle;shape=connector;rounded=1;orthogonalLoop=1;jettySize=auto;html=1;exitX=1;exitY=0.5;exitDx=0;exitDy=0;exitPerimeter=0;entryX=0;entryY=0.5;entryDx=0;entryDy=0;entryPerimeter=0;labelBackgroundColor=default;strokeColor=default;fontFamily=Helvetica;fontSize=11;fontColor=default;endArrow=classic;" edge="1" parent="1" source="gnDXf7aOe6YKthlQODZb-21" target="1SUmNRv2CSb627Tl9QGn-2">
          <mxGeometry relative="1" as="geometry">
            <Array as="points">
              <mxPoint x="920" y="-197" />
              <mxPoint x="920" y="-360" />
            </Array>
          </mxGeometry>
        </mxCell>
        <mxCell id="gnDXf7aOe6YKthlQODZb-26" style="edgeStyle=orthogonalEdgeStyle;shape=connector;rounded=1;orthogonalLoop=1;jettySize=auto;html=1;exitX=1;exitY=0.5;exitDx=0;exitDy=0;exitPerimeter=0;entryX=0;entryY=0.5;entryDx=0;entryDy=0;entryPerimeter=0;labelBackgroundColor=default;strokeColor=default;fontFamily=Helvetica;fontSize=11;fontColor=default;endArrow=classic;" edge="1" parent="1" source="gnDXf7aOe6YKthlQODZb-14" target="1SUmNRv2CSb627Tl9QGn-2">
          <mxGeometry relative="1" as="geometry">
            <Array as="points">
              <mxPoint x="840" y="-317" />
              <mxPoint x="840" y="-360" />
            </Array>
          </mxGeometry>
        </mxCell>
        <mxCell id="gnDXf7aOe6YKthlQODZb-27" style="edgeStyle=orthogonalEdgeStyle;shape=connector;rounded=1;orthogonalLoop=1;jettySize=auto;html=1;exitX=1;exitY=0.5;exitDx=0;exitDy=0;exitPerimeter=0;entryX=0;entryY=0.5;entryDx=0;entryDy=0;entryPerimeter=0;labelBackgroundColor=default;strokeColor=default;fontFamily=Helvetica;fontSize=11;fontColor=default;endArrow=classic;" edge="1" parent="1" source="gnDXf7aOe6YKthlQODZb-7" target="1SUmNRv2CSb627Tl9QGn-2">
          <mxGeometry relative="1" as="geometry" />
        </mxCell>
        <mxCell id="gnDXf7aOe6YKthlQODZb-28" value="ohmjs" style="rounded=1;whiteSpace=wrap;html=1;sketch=0;container=1;recursiveResize=0;verticalAlign=top;arcSize=6;fontStyle=1;autosize=0;points=[];absoluteArcSize=1;shadow=1;strokeColor=#001DBC;fillColor=#0050ef;fontColor=#ffffff;" vertex="1" parent="1">
          <mxGeometry x="1440" y="-400" width="136" height="160" as="geometry">
            <mxRectangle x="-98" y="-1230" width="99" height="26" as="alternateBounds" />
          </mxGeometry>
        </mxCell>
        <mxCell id="gnDXf7aOe6YKthlQODZb-29" value="args" style="rounded=1;whiteSpace=wrap;html=1;sketch=0;points=[[0,0.5,0,0,0],[1,0.5,0,0,0]];arcSize=50;" vertex="1" parent="gnDXf7aOe6YKthlQODZb-28">
          <mxGeometry x="-16.75" y="27.5" width="66" height="25" as="geometry" />
        </mxCell>
        <mxCell id="gnDXf7aOe6YKthlQODZb-30" value="stdout" style="rounded=1;whiteSpace=wrap;html=1;sketch=0;points=[[0,0.5,0,0,0],[1,0.5,0,0,0]];fillColor=#1ba1e2;fontColor=#ffffff;strokeColor=#006EAF;arcSize=50;" vertex="1" parent="gnDXf7aOe6YKthlQODZb-28">
          <mxGeometry x="84.75" y="27.5" width="66" height="25" as="geometry" />
        </mxCell>
        <mxCell id="gnDXf7aOe6YKthlQODZb-32" value="stdin" style="rounded=1;whiteSpace=wrap;html=1;sketch=0;points=[[0,0.5,0,0,0],[1,0.5,0,0,0]];arcSize=50;" vertex="1" parent="gnDXf7aOe6YKthlQODZb-28">
          <mxGeometry x="-16.75" y="95" width="66" height="25" as="geometry" />
        </mxCell>
        <mxCell id="gnDXf7aOe6YKthlQODZb-34" value="stderr" style="rounded=1;whiteSpace=wrap;html=1;sketch=0;points=[[0,0.5,0,0,0],[1,0.5,0,0,0]];fillColor=#1ba1e2;fontColor=#ffffff;strokeColor=#006EAF;arcSize=50;" vertex="1" parent="gnDXf7aOe6YKthlQODZb-28">
          <mxGeometry x="84.75" y="110" width="66" height="25" as="geometry" />
        </mxCell>
        <mxCell id="gnDXf7aOe6YKthlQODZb-36" value="Bang" style="rounded=1;whiteSpace=wrap;html=1;sketch=0;container=1;recursiveResize=0;verticalAlign=top;arcSize=6;fontStyle=1;autosize=0;points=[];absoluteArcSize=1;shadow=1;strokeColor=#001DBC;fillColor=#0050ef;fontColor=#ffffff;" vertex="1" parent="1">
          <mxGeometry x="1000" y="-240" width="136" height="80" as="geometry">
            <mxRectangle x="-98" y="-1230" width="99" height="26" as="alternateBounds" />
          </mxGeometry>
        </mxCell>
        <mxCell id="gnDXf7aOe6YKthlQODZb-37" value="any" style="rounded=1;whiteSpace=wrap;html=1;sketch=0;points=[[0,0.5,0,0,0],[1,0.5,0,0,0]];arcSize=50;" vertex="1" parent="gnDXf7aOe6YKthlQODZb-36">
          <mxGeometry x="-16.75" y="27.5" width="66" height="25" as="geometry" />
        </mxCell>
        <mxCell id="gnDXf7aOe6YKthlQODZb-38" value="output" style="rounded=1;whiteSpace=wrap;html=1;sketch=0;points=[[0,0.5,0,0,0],[1,0.5,0,0,0]];fillColor=#1ba1e2;fontColor=#ffffff;strokeColor=#006EAF;arcSize=50;" vertex="1" parent="gnDXf7aOe6YKthlQODZb-36">
          <mxGeometry x="84.75" y="27.5" width="66" height="25" as="geometry" />
        </mxCell>
        <mxCell id="gnDXf7aOe6YKthlQODZb-43" style="edgeStyle=orthogonalEdgeStyle;shape=connector;rounded=1;orthogonalLoop=1;jettySize=auto;html=1;exitX=1;exitY=0.5;exitDx=0;exitDy=0;exitPerimeter=0;entryX=0;entryY=0.5;entryDx=0;entryDy=0;entryPerimeter=0;labelBackgroundColor=default;strokeColor=default;fontFamily=Helvetica;fontSize=11;fontColor=default;endArrow=classic;" edge="1" parent="1" source="gnDXf7aOe6YKthlQODZb-38" target="gnDXf7aOe6YKthlQODZb-35">
          <mxGeometry relative="1" as="geometry" />
        </mxCell>
        <mxCell id="gnDXf7aOe6YKthlQODZb-45" style="edgeStyle=orthogonalEdgeStyle;shape=connector;rounded=1;orthogonalLoop=1;jettySize=auto;html=1;exitX=1;exitY=0.5;exitDx=0;exitDy=0;exitPerimeter=0;entryX=0;entryY=0.5;entryDx=0;entryDy=0;entryPerimeter=0;labelBackgroundColor=default;strokeColor=default;fontFamily=Helvetica;fontSize=11;fontColor=default;endArrow=classic;" edge="1" parent="1" source="1SUmNRv2CSb627Tl9QGn-3" target="gnDXf7aOe6YKthlQODZb-29">
          <mxGeometry relative="1" as="geometry" />
        </mxCell>
        <mxCell id="gnDXf7aOe6YKthlQODZb-46" style="edgeStyle=orthogonalEdgeStyle;shape=connector;rounded=1;orthogonalLoop=1;jettySize=auto;html=1;exitX=1;exitY=0.5;exitDx=0;exitDy=0;exitPerimeter=0;entryX=0;entryY=0.5;entryDx=0;entryDy=0;entryPerimeter=0;labelBackgroundColor=default;strokeColor=default;fontFamily=Helvetica;fontSize=11;fontColor=default;endArrow=classic;" edge="1" parent="1" source="gnDXf7aOe6YKthlQODZb-21" target="gnDXf7aOe6YKthlQODZb-37">
          <mxGeometry relative="1" as="geometry" />
        </mxCell>
        <mxCell id="gnDXf7aOe6YKthlQODZb-47" style="edgeStyle=orthogonalEdgeStyle;shape=connector;rounded=1;orthogonalLoop=1;jettySize=auto;html=1;exitX=1;exitY=0.5;exitDx=0;exitDy=0;exitPerimeter=0;entryX=0;entryY=0.5;entryDx=0;entryDy=0;entryPerimeter=0;labelBackgroundColor=default;strokeColor=default;fontFamily=Helvetica;fontSize=11;fontColor=default;endArrow=classic;" edge="1" parent="1" source="gnDXf7aOe6YKthlQODZb-20" target="gnDXf7aOe6YKthlQODZb-32">
          <mxGeometry relative="1" as="geometry">
            <Array as="points">
              <mxPoint x="920" y="-157" />
              <mxPoint x="920" y="-120" />
              <mxPoint x="1400" y="-120" />
              <mxPoint x="1400" y="-292" />
            </Array>
          </mxGeometry>
        </mxCell>
        <mxCell id="gnDXf7aOe6YKthlQODZb-48" style="edgeStyle=orthogonalEdgeStyle;shape=connector;rounded=1;orthogonalLoop=1;jettySize=auto;html=1;exitX=1;exitY=0.5;exitDx=0;exitDy=0;exitPerimeter=0;labelBackgroundColor=default;strokeColor=default;fontFamily=Helvetica;fontSize=11;fontColor=default;endArrow=classic;" edge="1" parent="1" source="gnDXf7aOe6YKthlQODZb-30" target="gnDXf7aOe6YKthlQODZb-1">
          <mxGeometry relative="1" as="geometry" />
        </mxCell>
        <mxCell id="gnDXf7aOe6YKthlQODZb-49" style="edgeStyle=orthogonalEdgeStyle;shape=connector;rounded=1;orthogonalLoop=1;jettySize=auto;html=1;exitX=1;exitY=0.5;exitDx=0;exitDy=0;exitPerimeter=0;entryX=0;entryY=0.5;entryDx=0;entryDy=0;entryPerimeter=0;labelBackgroundColor=default;strokeColor=default;fontFamily=Helvetica;fontSize=11;fontColor=default;endArrow=classic;" edge="1" parent="1" source="gnDXf7aOe6YKthlQODZb-34" target="gnDXf7aOe6YKthlQODZb-2">
          <mxGeometry relative="1" as="geometry" />
        </mxCell>
      </root>
    </mxGraphModel>
  </diagram>
  <diagram id="wefWopG52UVLpESnhRD1" name="main">
    <mxGraphModel dx="1015" dy="1578" grid="1" gridSize="10" guides="1" tooltips="1" connect="1" arrows="1" fold="1" page="1" pageScale="1" pageWidth="1100" pageHeight="850" math="0" shadow="0">
      <root>
        <mxCell id="0" />
        <mxCell id="1" parent="0" />
        <mxCell id="Tb86kG9ixQJnsJW597pu-44" style="edgeStyle=orthogonalEdgeStyle;shape=connector;rounded=1;orthogonalLoop=1;jettySize=auto;html=1;exitX=1;exitY=0.5;exitDx=0;exitDy=0;exitPerimeter=0;entryX=0;entryY=0.5;entryDx=0;entryDy=0;entryPerimeter=0;labelBackgroundColor=default;strokeColor=default;fontFamily=Helvetica;fontSize=11;fontColor=default;endArrow=classic;" edge="1" parent="1" source="Tb86kG9ixQJnsJW597pu-2" target="2eh1r7yGEwTQ0CybBAlK-2">
          <mxGeometry relative="1" as="geometry" />
        </mxCell>
        <mxCell id="Tb86kG9ixQJnsJW597pu-2" value="grammar" style="rhombus;whiteSpace=wrap;html=1;rounded=1;fontStyle=1;glass=0;sketch=0;fontSize=12;points=[[0,0.5,0,0,0],[0.5,0,0,0,0],[0.5,1,0,0,0],[1,0.5,0,0,0]];shadow=1;" vertex="1" parent="1">
          <mxGeometry x="40" y="-510" width="80" height="80" as="geometry" />
        </mxCell>
        <mxCell id="Tb86kG9ixQJnsJW597pu-3" value="transpiled" style="rhombus;whiteSpace=wrap;html=1;rounded=1;fillColor=#0050ef;fontColor=#ffffff;strokeColor=#001DBC;fontStyle=1;glass=0;sketch=0;fontSize=12;points=[[0,0.5,0,0,0],[0.5,0,0,0,0],[0.5,1,0,0,0],[1,0.5,0,0,0]];shadow=1;" vertex="1" parent="1">
          <mxGeometry x="986.75" y="-220" width="80" height="80" as="geometry" />
        </mxCell>
        <mxCell id="Tb86kG9ixQJnsJW597pu-8" value="semantics" style="rhombus;whiteSpace=wrap;html=1;rounded=1;fontStyle=1;glass=0;sketch=0;fontSize=12;points=[[0,0.5,0,0,0],[0.5,0,0,0,0],[0.5,1,0,0,0],[1,0.5,0,0,0]];shadow=1;" vertex="1" parent="1">
          <mxGeometry x="40" y="-390" width="80" height="80" as="geometry" />
        </mxCell>
        <mxCell id="Tb86kG9ixQJnsJW597pu-10" value="support" style="rhombus;whiteSpace=wrap;html=1;rounded=1;fontStyle=1;glass=0;sketch=0;fontSize=12;points=[[0,0.5,0,0,0],[0.5,0,0,0,0],[0.5,1,0,0,0],[1,0.5,0,0,0]];shadow=1;" vertex="1" parent="1">
          <mxGeometry x="40" y="-270" width="80" height="80" as="geometry" />
        </mxCell>
        <mxCell id="Tb86kG9ixQJnsJW597pu-46" style="edgeStyle=orthogonalEdgeStyle;shape=connector;rounded=1;orthogonalLoop=1;jettySize=auto;html=1;exitX=1;exitY=0.5;exitDx=0;exitDy=0;exitPerimeter=0;entryX=0;entryY=0.5;entryDx=0;entryDy=0;entryPerimeter=0;labelBackgroundColor=default;strokeColor=default;fontFamily=Helvetica;fontSize=11;fontColor=default;endArrow=classic;" edge="1" parent="1" source="Tb86kG9ixQJnsJW597pu-12" target="2eh1r7yGEwTQ0CybBAlK-4">
          <mxGeometry relative="1" as="geometry">
            <Array as="points">
              <mxPoint x="290" y="-110" />
              <mxPoint x="290" y="-260" />
              <mxPoint x="570" y="-260" />
              <mxPoint x="570" y="-502" />
            </Array>
          </mxGeometry>
        </mxCell>
        <mxCell id="Tb86kG9ixQJnsJW597pu-12" value="src" style="rhombus;whiteSpace=wrap;html=1;rounded=1;fontStyle=1;glass=0;sketch=0;fontSize=12;points=[[0,0.5,0,0,0],[0.5,0,0,0,0],[0.5,1,0,0,0],[1,0.5,0,0,0]];shadow=1;" vertex="1" parent="1">
          <mxGeometry x="40" y="-150" width="80" height="80" as="geometry" />
        </mxCell>
        <mxCell id="Tb86kG9ixQJnsJW597pu-13" value="error" style="rhombus;whiteSpace=wrap;html=1;rounded=1;fillColor=#0050ef;fontColor=#ffffff;strokeColor=#001DBC;fontStyle=1;glass=0;sketch=0;fontSize=12;points=[[0,0.5,0,0,0],[0.5,0,0,0,0],[0.5,1,0,0,0],[1,0.5,0,0,0]];shadow=1;" vertex="1" parent="1">
          <mxGeometry x="986.75" y="-90" width="80" height="80" as="geometry" />
        </mxCell>
        <mxCell id="Tb86kG9ixQJnsJW597pu-14" value="Ohm" style="rounded=1;whiteSpace=wrap;html=1;sketch=0;container=1;recursiveResize=0;verticalAlign=top;arcSize=6;fontStyle=1;autosize=0;points=[];absoluteArcSize=1;shadow=1;strokeColor=#001DBC;fillColor=#0050ef;fontColor=#ffffff;" vertex="1" parent="1">
          <mxGeometry x="570" y="-180" width="136" height="170" as="geometry">
            <mxRectangle x="-98" y="-1230" width="99" height="26" as="alternateBounds" />
          </mxGeometry>
        </mxCell>
        <mxCell id="Tb86kG9ixQJnsJW597pu-15" value="grammar" style="rounded=1;whiteSpace=wrap;html=1;sketch=0;points=[[0,0.5,0,0,0],[1,0.5,0,0,0]];arcSize=50;" vertex="1" parent="Tb86kG9ixQJnsJW597pu-14">
          <mxGeometry x="-16.75" y="27.5" width="66" height="25" as="geometry" />
        </mxCell>
        <mxCell id="Tb86kG9ixQJnsJW597pu-16" value="processed" style="rounded=1;whiteSpace=wrap;html=1;sketch=0;points=[[0,0.5,0,0,0],[1,0.5,0,0,0]];fillColor=#1ba1e2;fontColor=#ffffff;strokeColor=#006EAF;arcSize=50;" vertex="1" parent="Tb86kG9ixQJnsJW597pu-14">
          <mxGeometry x="84.75" y="50" width="66" height="25" as="geometry" />
        </mxCell>
        <mxCell id="Tb86kG9ixQJnsJW597pu-17" value="semantics" style="rounded=1;whiteSpace=wrap;html=1;sketch=0;points=[[0,0.5,0,0,0],[1,0.5,0,0,0]];arcSize=50;" vertex="1" parent="Tb86kG9ixQJnsJW597pu-14">
          <mxGeometry x="-16.75" y="60" width="66" height="25" as="geometry" />
        </mxCell>
        <mxCell id="Tb86kG9ixQJnsJW597pu-18" value="support" style="rounded=1;whiteSpace=wrap;html=1;sketch=0;points=[[0,0.5,0,0,0],[1,0.5,0,0,0]];arcSize=50;" vertex="1" parent="Tb86kG9ixQJnsJW597pu-14">
          <mxGeometry x="-16.75" y="95" width="66" height="25" as="geometry" />
        </mxCell>
        <mxCell id="Tb86kG9ixQJnsJW597pu-19" value="src" style="rounded=1;whiteSpace=wrap;html=1;sketch=0;points=[[0,0.5,0,0,0],[1,0.5,0,0,0]];arcSize=50;" vertex="1" parent="Tb86kG9ixQJnsJW597pu-14">
          <mxGeometry x="-16.75" y="130" width="66" height="25" as="geometry" />
        </mxCell>
        <mxCell id="Tb86kG9ixQJnsJW597pu-20" value="error" style="rounded=1;whiteSpace=wrap;html=1;sketch=0;points=[[0,0.5,0,0,0],[1,0.5,0,0,0]];fillColor=#1ba1e2;fontColor=#ffffff;strokeColor=#006EAF;arcSize=50;" vertex="1" parent="Tb86kG9ixQJnsJW597pu-14">
          <mxGeometry x="84.75" y="110" width="66" height="25" as="geometry" />
        </mxCell>
        <mxCell id="Tb86kG9ixQJnsJW597pu-38" style="edgeStyle=orthogonalEdgeStyle;shape=connector;rounded=1;orthogonalLoop=1;jettySize=auto;html=1;exitX=1;exitY=0.5;exitDx=0;exitDy=0;exitPerimeter=0;entryX=0;entryY=0.5;entryDx=0;entryDy=0;entryPerimeter=0;labelBackgroundColor=default;strokeColor=default;fontFamily=Helvetica;fontSize=11;fontColor=default;endArrow=classic;" edge="1" parent="1" source="2eh1r7yGEwTQ0CybBAlK-3" target="Tb86kG9ixQJnsJW597pu-3">
          <mxGeometry relative="1" as="geometry">
            <mxPoint x="700" y="-167.5" as="targetPoint" />
          </mxGeometry>
        </mxCell>
        <mxCell id="Tb86kG9ixQJnsJW597pu-41" style="edgeStyle=orthogonalEdgeStyle;shape=connector;rounded=1;orthogonalLoop=1;jettySize=auto;html=1;exitX=1;exitY=0.5;exitDx=0;exitDy=0;exitPerimeter=0;labelBackgroundColor=default;strokeColor=default;fontFamily=Helvetica;fontSize=11;fontColor=default;endArrow=classic;entryX=0;entryY=0.5;entryDx=0;entryDy=0;entryPerimeter=0;jumpStyle=arc;" edge="1" parent="1" source="2eh1r7yGEwTQ0CybBAlK-5" target="Tb86kG9ixQJnsJW597pu-13">
          <mxGeometry relative="1" as="geometry">
            <Array as="points">
              <mxPoint x="780" y="-487" />
              <mxPoint x="780" y="-347" />
              <mxPoint x="897" y="-347" />
              <mxPoint x="897" y="-50" />
            </Array>
          </mxGeometry>
        </mxCell>
        <mxCell id="2eh1r7yGEwTQ0CybBAlK-1" value="ohmjs" style="rounded=1;whiteSpace=wrap;html=1;sketch=0;container=1;recursiveResize=0;verticalAlign=top;arcSize=6;fontStyle=1;autosize=0;points=[];absoluteArcSize=1;shadow=1;strokeColor=#001DBC;fillColor=#0050ef;fontColor=#ffffff;" vertex="1" parent="1">
          <mxGeometry x="600" y="-610" width="136" height="160" as="geometry">
            <mxRectangle x="-98" y="-1230" width="99" height="26" as="alternateBounds" />
          </mxGeometry>
        </mxCell>
        <mxCell id="2eh1r7yGEwTQ0CybBAlK-2" value="args" style="rounded=1;whiteSpace=wrap;html=1;sketch=0;points=[[0,0.5,0,0,0],[1,0.5,0,0,0]];arcSize=50;" vertex="1" parent="2eh1r7yGEwTQ0CybBAlK-1">
          <mxGeometry x="-16.75" y="27.5" width="66" height="25" as="geometry" />
        </mxCell>
        <mxCell id="2eh1r7yGEwTQ0CybBAlK-3" value="stdout" style="rounded=1;whiteSpace=wrap;html=1;sketch=0;points=[[0,0.5,0,0,0],[1,0.5,0,0,0]];fillColor=#1ba1e2;fontColor=#ffffff;strokeColor=#006EAF;arcSize=50;" vertex="1" parent="2eh1r7yGEwTQ0CybBAlK-1">
          <mxGeometry x="84.75" y="27.5" width="66" height="25" as="geometry" />
        </mxCell>
        <mxCell id="2eh1r7yGEwTQ0CybBAlK-4" value="stdin" style="rounded=1;whiteSpace=wrap;html=1;sketch=0;points=[[0,0.5,0,0,0],[1,0.5,0,0,0]];arcSize=50;" vertex="1" parent="2eh1r7yGEwTQ0CybBAlK-1">
          <mxGeometry x="-16.75" y="95" width="66" height="25" as="geometry" />
        </mxCell>
        <mxCell id="2eh1r7yGEwTQ0CybBAlK-5" value="stderr" style="rounded=1;whiteSpace=wrap;html=1;sketch=0;points=[[0,0.5,0,0,0],[1,0.5,0,0,0]];fillColor=#1ba1e2;fontColor=#ffffff;strokeColor=#006EAF;arcSize=50;" vertex="1" parent="2eh1r7yGEwTQ0CybBAlK-1">
          <mxGeometry x="84.75" y="110" width="66" height="25" as="geometry" />
        </mxCell>
      </root>
    </mxGraphModel>
  </diagram>
</mxfile>
